<svg xmlns="http://www.w3.org/2000/svg"  viewBox="0 0 48 48" width="48px" height="48px"><linearGradient id="SVGID_1_" x1="36.847" x2="11.435" y1="12.632" y2="38.044" gradientUnits="userSpaceOnUse"><stop offset="0" stop-color="#60fea4"/><stop offset=".033" stop-color="#6afeaa"/><stop offset=".197" stop-color="#97fec4"/><stop offset=".362" stop-color="#bdffd9"/><stop offset=".525" stop-color="#daffea"/><stop offset=".687" stop-color="#eefff5"/><stop offset=".846" stop-color="#fbfffd"/><stop offset="1" stop-color="#fff"/></linearGradient><path fill="url(#SVGID_1_)" d="M38.669,16.28c-1.719,0-3.113,1.376-3.113,3.074v-3.386c0-6.225-5.111-11.273-11.415-11.273	S12.726,9.743,12.726,15.968v3.386c0-1.698-1.394-3.074-3.113-3.074S6.5,17.656,6.5,19.354v11.273c0,1.698,1.394,3.074,3.113,3.074	s3.113-1.376,3.113-3.074v2.495c0,1.624,1.333,2.941,2.978,2.941h0.135v5.124c0,1.698,1.394,3.074,3.113,3.074	s3.113-1.376,3.113-3.074v-5.124h4.151v5.124c0,1.698,1.394,3.074,3.113,3.074s3.113-1.376,3.113-3.074v-5.124h0.135	c1.645,0,2.978-1.316,2.978-2.941v-2.495c0,1.698,1.394,3.074,3.113,3.074s3.113-1.376,3.113-3.074V19.354	C41.783,17.656,40.389,16.28,38.669,16.28z"/><path fill="none" stroke="#10e36c" stroke-linecap="round" stroke-linejoin="round" stroke-width="3" d="M30,6.188C28.253,5.117,26.199,4.5,24,4.5l0,0c-6.351,0-11.5,5.149-11.5,11.5v17.5c0,1.657,1.343,3,3,3h17	c1.657,0,3-1.343,3-3V16c0-1.681-0.361-3.278-1.009-4.718"/><path fill="none" stroke="#10e36c" stroke-width="3" d="M29.5,44.5L29.5,44.5c1.657,0,3-1.343,3-3v-5h-6v5C26.5,43.157,27.843,44.5,29.5,44.5z"/><path fill="none" stroke="#10e36c" stroke-width="3" d="M18.5,44.5L18.5,44.5c1.657,0,3-1.343,3-3v-5h-6v5C15.5,43.157,16.843,44.5,18.5,44.5z"/><line x1="16.872" x2="35" y1="16.5" y2="16.5" fill="none" stroke="#10e36c" stroke-linecap="round" stroke-linejoin="round" stroke-width="3"/><circle cx="28.5" cy="11.5" r="1.5" fill="#10e36c"/><circle cx="19.5" cy="11.5" r="1.5" fill="#10e36c"/><line x1="30" x2="32.5" y1="6" y2="2.5" fill="none" stroke="#10e36c" stroke-linecap="round" stroke-width="3"/><line x1="18" x2="15.5" y1="6" y2="2.5" fill="none" stroke="#10e36c" stroke-linecap="round" stroke-width="3"/><path fill="none" stroke="#10e36c" stroke-linecap="round" stroke-linejoin="round" stroke-width="3" d="M41.448,31.06c-0.262,1.389-1.482,2.44-2.948,2.44l0,0c-1.657,0-3-1.343-3-3v-11c0-1.657,1.343-3,3-3l0,0	c1.657,0,3,1.343,3,3v6.564"/><path fill="none" stroke="#10e36c" stroke-linecap="round" stroke-linejoin="round" stroke-width="3" d="M6.5,19.5c0-1.657,1.343-3,3-3l0,0c1.657,0,3,1.343,3,3"/><path fill="none" stroke="#10e36c" stroke-linecap="round" stroke-linejoin="round" stroke-width="3" d="M12.5,19.5v11c0,1.657-1.343,3-3,3l0,0c-1.657,0-3-1.343-3-3v-6.181"/></svg>