<?xml version="1.0" encoding="UTF-8"?>
<svg version="1.1" xmlns="http://www.w3.org/2000/svg" width="50" height="50">
<path d="M0 0 C3.45102646 1.62662241 6.61082377 3.62010422 9.8125 5.6875 C10.68326172 6.21794922 11.55402344 6.74839844 12.45117188 7.29492188 C13.27810547 7.82021484 14.10503906 8.34550781 14.95703125 8.88671875 C15.70960205 9.36326904 16.46217285 9.83981934 17.23754883 10.33081055 C19.46225909 12.43779822 19.67887346 14.00651734 20 17 C18.35 18.32 16.7 19.64 15 21 C15.32742187 21.81726563 15.65484375 22.63453125 15.9921875 23.4765625 C17.16951093 27.59263124 17.22478162 31.13044334 17.125 35.375 C17.11597656 36.11105469 17.10695312 36.84710938 17.09765625 37.60546875 C17.07430144 39.4037888 17.03843836 41.20193911 17 43 C16.01257812 43.13277344 15.02515625 43.26554687 14.0078125 43.40234375 C12.72648437 43.57894531 11.44515625 43.75554688 10.125 43.9375 C8.84882812 44.11152344 7.57265625 44.28554688 6.2578125 44.46484375 C3.12440546 44.81433227 3.12440546 44.81433227 1 46 C-4.56559556 46.28299638 -8.63018939 45.60152246 -14 44 C-16.99191142 43.56367959 -19.98799372 43.25953796 -23 43 C-22.938125 42.071875 -22.87625 41.14375 -22.8125 40.1875 C-22.63780818 37.03198814 -22.63780818 37.03198814 -24.46044922 35.58422852 C-27.93698532 32.0068034 -27.08341072 25.77272449 -27.19018555 21.06103516 C-27.04508369 17.25301219 -26.89358018 14.21784077 -24.59521484 11.08544922 C-21.08436603 7.93468746 -17.07286129 5.78703224 -12.79541016 3.84667969 C-10.80181753 2.96024351 -10.80181753 2.96024351 -8.38671875 1.2578125 C-5.15193675 -0.4469335 -3.6414151 -0.59900201 0 0 Z M-11 14 C-11 14.33 -11 14.66 -11 15 C-5.72 15 -0.44 15 5 15 C5 14.67 5 14.34 5 14 C-0.28 14 -5.56 14 -11 14 Z M-17 16 C-17 17.98 -17 19.96 -17 22 C-17.99 22.495 -17.99 22.495 -19 23 C-17.93354885 24.29633621 -17.93354885 24.29633621 -15.4375 24.0625 C-14.633125 24.041875 -13.82875 24.02125 -13 24 C-13.66 23.67 -14.32 23.34 -15 23 C-15 20.69 -15 18.38 -15 16 C-15.66 16 -16.32 16 -17 16 Z M9 16 C9 18.31 9 20.62 9 23 C8.01 23.495 8.01 23.495 7 24 C8.65 24 10.3 24 12 24 C12.33 23.34 12.66 22.68 13 22 C12.34 22 11.68 22 11 22 C11 20.02 11 18.04 11 16 C10.34 16 9.68 16 9 16 Z M-21 20 C-21 20.66 -21 21.32 -21 22 C-20.34 21.67 -19.68 21.34 -19 21 C-19.66 20.67 -20.32 20.34 -21 20 Z M-13 22 C-13 22.33 -13 22.66 -13 23 C-9.7 23.33 -6.4 23.66 -3 24 C-6.90432869 25.95216435 -9.72213252 26.50639991 -14 27 C-14.82020564 28.73760128 -14.82020564 28.73760128 -15 31 C-13.66112113 33.60411188 -13.66112113 33.60411188 -11.6875 36.125 C-11.05199219 36.99382813 -10.41648437 37.86265625 -9.76171875 38.7578125 C-7.16452579 42.21390033 -7.16452579 42.21390033 -3.1875 43.5 C0.23100002 43.28436259 0.23100002 43.28436259 2.625 40.375 C3.43348288 39.26202357 4.22505631 38.13658408 5 37 C5.78375 35.96875 6.5675 34.9375 7.375 33.875 C9.17427028 31.24208586 9.17427028 31.24208586 9 28.875 C7.70876129 26.45392742 6.02608832 24.83001526 4 23 C4.99 22.67 5.98 22.34 7 22 C0.09811029 21.16145265 -6.11422188 20.98406552 -13 22 Z M-21 26 C-20 28 -20 28 -20 28 Z M-20 28 C-20 29.98 -20 31.96 -20 34 C-19.67 34 -19.34 34 -19 34 C-19 32.02 -19 30.04 -19 28 C-19.33 28 -19.66 28 -20 28 Z M-21 34 C-20 36 -20 36 -20 36 Z " fill="#000000" transform="translate(28,2)"/>
</svg>
