<?xml version="1.0" encoding="UTF-8"?>
<svg version="1.1" xmlns="http://www.w3.org/2000/svg" width="500" height="500">
<path d="M0 0 C0.60980713 0.47268311 1.21961426 0.94536621 1.84790039 1.43237305 C3.29514869 2.59139193 4.68527519 3.82108781 6.0625 5.0625 C6.0625 5.7225 6.0625 6.3825 6.0625 7.0625 C10.5626405 6.19669304 13.08813303 3.57821883 16.375 0.5625 C44.13669844 -23.98522544 80.71979202 -29.73845647 116.66601562 -27.796875 C140.20721351 -26.20209023 163.59366994 -20.85985526 185.0625 -10.9375 C186.1865625 -10.42832031 187.310625 -9.91914063 188.46875 -9.39453125 C191.42510266 -6.59401044 191.47088741 -6.05256011 191.6484375 -2.171875 C191.60867566 -0.34283048 191.53728066 1.48574641 191.4375 3.3125 C191.41042969 4.24835938 191.38335937 5.18421875 191.35546875 6.1484375 C191.28484523 8.4554724 191.18630579 10.75780769 191.0625 13.0625 C191.65264893 13.04155273 192.24279785 13.02060547 192.85083008 12.99902344 C195.52537999 12.91586317 198.19965815 12.86384309 200.875 12.8125 C201.80376953 12.77898437 202.73253906 12.74546875 203.68945312 12.7109375 C204.58212891 12.69804687 205.47480469 12.68515625 206.39453125 12.671875 C207.62780151 12.6404541 207.62780151 12.6404541 208.88598633 12.60839844 C211.0625 13.0625 211.0625 13.0625 212.67388153 14.4839716 C214.82137473 18.471656 214.48235077 22.31150177 214.45690918 26.77305603 C214.46300028 27.76933268 214.46909139 28.76560932 214.47536707 29.79207617 C214.49205446 33.14006348 214.487213 36.48767286 214.48242188 39.83569336 C214.48975883 42.23208513 214.49834396 44.62847337 214.50808716 47.02485657 C214.52803666 52.86407362 214.53368164 58.7031981 214.53189927 64.54243939 C214.53059204 69.28821388 214.53439377 74.03395737 214.54182434 78.77972603 C214.54392352 80.1463318 214.54602112 81.51293758 214.54811716 82.87954336 C214.54968245 83.89981295 214.54968245 83.89981295 214.55127937 84.94069404 C214.57018433 97.80649897 214.56913069 110.67224689 214.56231004 123.53805996 C214.55673375 135.31006198 214.57756309 147.08184643 214.61067051 158.85379761 C214.64439656 170.93944978 214.65957725 183.02499769 214.65495348 195.11069781 C214.65270776 201.8966475 214.65796681 208.68239607 214.68284607 215.46830559 C214.70504777 221.84841545 214.70328977 228.2280713 214.68291855 234.60818291 C214.67949694 236.95236053 214.68464673 239.29656833 214.69890213 241.64070511 C214.71699576 244.83599178 214.70441803 248.02972201 214.68395996 251.22496033 C214.69647781 252.15705903 214.70899566 253.08915772 214.72189283 254.04950184 C214.6623314 258.37552563 214.45471482 260.48892662 211.95985889 264.13739395 C208.390221 266.50918556 206.35316459 266.69216991 202.08329773 266.70173645 C201.04783435 266.71426996 201.04783435 266.71426996 199.99145252 266.72705668 C197.68478342 266.74895566 195.37971127 266.73539082 193.07299805 266.72192383 C191.41709689 266.73037803 189.76120568 266.7410226 188.10533142 266.75369263 C183.61389667 266.78185334 179.12293925 266.77936487 174.63144279 266.77139878 C169.9361743 266.76827521 165.24105825 266.79330369 160.54585266 266.81535339 C151.6565841 266.85281803 142.76746854 266.86494282 133.87812883 266.8679778 C123.75721267 266.872666 113.63645002 266.90558168 103.51560152 266.94087565 C82.69791848 267.01283943 61.88029779 267.04933161 41.0625 267.0625 C40.74796875 267.82175781 40.4334375 268.58101563 40.109375 269.36328125 C39.46742188 270.85408203 39.46742188 270.85408203 38.8125 272.375 C38.39484375 273.36113281 37.9771875 274.34726562 37.546875 275.36328125 C35.99940191 278.17723889 34.79887748 279.43845962 32.0625 281.0625 C29.79286194 281.45690918 29.79286194 281.45690918 27.28149414 281.48242188 C26.33693863 281.49833374 25.39238312 281.51424561 24.41920471 281.53063965 C23.40559372 281.53084106 22.39198273 281.53104248 21.34765625 281.53125 C20.29976425 281.53886353 19.25187225 281.54647705 18.17222595 281.55432129 C15.95737082 281.56512069 13.74246478 281.56797606 11.52758789 281.56347656 C8.14057414 281.56250447 4.75582716 281.60412525 1.36914062 281.6484375 C-0.78384944 281.65364471 -2.93684738 281.65633269 -5.08984375 281.65625 C-6.10143051 281.67264526 -7.11301727 281.68904053 -8.15525818 281.70593262 C-15.19957303 281.63676539 -15.19957303 281.63676539 -19.04394531 278.64501953 C-21.94879237 274.68325159 -23.9375 271.10760607 -23.9375 266.0625 C-24.80387179 266.06710896 -25.67024359 266.07171793 -26.56286907 266.07646656 C-47.63619675 266.18685167 -68.70947465 266.2696108 -89.78303051 266.32156086 C-99.9740302 266.34735082 -110.164837 266.38251652 -120.35571289 266.43969727 C-129.23730592 266.48950793 -138.11875927 266.52178525 -147.0004881 266.53294247 C-151.70408086 266.5394652 -156.40727399 266.55481182 -161.11073875 266.59115028 C-165.53734733 266.6250729 -169.96339143 266.63556058 -174.39011765 266.62803841 C-176.01511896 266.62941463 -177.64013903 266.6393697 -179.265028 266.65852737 C-181.48415703 266.68340916 -183.70115549 266.67742568 -185.92033386 266.66377258 C-187.16198901 266.66838155 -188.40364416 266.67299051 -189.68292522 266.67773914 C-194.05061766 265.85207818 -195.43185858 264.73371032 -197.9375 261.0625 C-198.64420121 257.77662357 -198.60395906 254.57566408 -198.55895996 251.22496033 C-198.56534878 250.22712369 -198.5717376 249.22928705 -198.57832003 248.20121294 C-198.59359482 244.85370608 -198.57309133 241.50737799 -198.55273438 238.15991211 C-198.55623478 235.76175036 -198.56189244 233.36359092 -198.56954956 230.96543884 C-198.58233561 225.12591121 -198.57184573 219.28676405 -198.55043632 213.44726866 C-198.52642258 206.64784798 -198.52814088 199.84850693 -198.53074223 193.04905326 C-198.53443213 180.91829074 -198.51360858 168.78769209 -198.47949219 156.65698242 C-198.44639365 144.88382832 -198.43223514 133.11084617 -198.43847656 121.33764648 C-198.44523918 108.51825122 -198.44278459 95.69892799 -198.42311716 82.87954336 C-198.42207768 82.20180621 -198.42103819 81.52406906 -198.4199672 80.82579442 C-198.4178763 79.4645745 -198.41576533 78.10335461 -198.41363403 76.74213476 C-198.4067363 72.00155013 -198.40606947 67.26098769 -198.40751648 62.52039909 C-198.40910571 56.14199986 -198.39422299 49.76376355 -198.36828995 43.38541603 C-198.36111161 41.04083124 -198.35905249 38.69622454 -198.36240768 36.35163116 C-198.36610633 33.15854701 -198.35143085 29.96607023 -198.33190918 26.77305603 C-198.33723711 25.83872661 -198.34256503 24.90439719 -198.34805441 23.94175476 C-198.28194733 17.70210494 -198.28194733 17.70210494 -196.54888153 14.4839716 C-194.38310267 12.57344137 -193.131146 12.59896762 -190.26953125 12.671875 C-189.37685547 12.68476563 -188.48417969 12.69765625 -187.56445312 12.7109375 C-186.63568359 12.74445313 -185.70691406 12.77796875 -184.75 12.8125 C-183.33944336 12.83957031 -183.33944336 12.83957031 -181.90039062 12.8671875 C-179.57840111 12.9143345 -177.2584631 12.98011769 -174.9375 13.0625 C-174.98463135 12.18513184 -174.98463135 12.18513184 -175.03271484 11.29003906 C-175.15769139 8.63125534 -175.23554083 5.9730885 -175.3125 3.3125 C-175.38791016 1.93191406 -175.38791016 1.93191406 -175.46484375 0.5234375 C-175.52149884 -2.08269687 -175.48088947 -4.38691953 -174.9375 -6.9375 C-172.359375 -9.390625 -172.359375 -9.390625 -168.9375 -10.9375 C-167.23207031 -11.7109375 -167.23207031 -11.7109375 -165.4921875 -12.5 C-164.27789062 -12.974375 -163.06359375 -13.44875 -161.8125 -13.9375 C-160.61367187 -14.411875 -159.41484375 -14.88625 -158.1796875 -15.375 C-148.86984809 -18.85947787 -139.64101644 -21.67437257 -129.875 -23.5625 C-128.78864258 -23.77414795 -127.70228516 -23.9857959 -126.58300781 -24.20385742 C-82.27096762 -32.58483944 -36.50889862 -28.33561314 0 0 Z M-162.9375 1.0625 C-162.9375 75.3125 -162.9375 149.5625 -162.9375 226.0625 C-159.320761 225.15831525 -156.03650086 224.02365418 -152.5625 222.6875 C-151.46164063 222.26726562 -150.36078125 221.84703125 -149.2265625 221.4140625 C-145.95941823 220.12999696 -145.95941823 220.12999696 -143.04296875 218.55078125 C-114.60356302 204.9213302 -78.9540735 205.90795945 -48.9375 212.0625 C-47.69871094 212.31257812 -46.45992188 212.56265625 -45.18359375 212.8203125 C-35.17227839 215.09145836 -26.04642931 219.43767237 -16.875 223.9375 C-16.25077148 224.24067139 -15.62654297 224.54384277 -14.98339844 224.85620117 C-10.88796288 226.90761519 -7.03490533 229.23151456 -3.17797852 231.70361328 C-2.19450943 232.33292755 -1.21104034 232.96224182 -0.19776917 233.61062622 C0.54811966 234.08974457 1.29400848 234.56886292 2.0625 235.0625 C2.15586211 207.09909756 2.22643938 179.13571842 2.26974869 151.17219162 C2.29039073 138.18879747 2.31854277 125.20550004 2.36425781 112.22216797 C2.40407522 100.90842445 2.42992086 89.59475097 2.43885398 78.28093934 C2.44407734 72.2880526 2.45638838 66.29536627 2.48542023 60.30254364 C2.5125087 54.6653679 2.52095825 49.02847571 2.51493073 43.39124107 C2.5160339 41.31915688 2.52402665 39.24706351 2.5393219 37.17503548 C2.5591469 34.35158853 2.55446653 31.52922005 2.54351807 28.70574951 C2.56099512 27.46839574 2.56099512 27.46839574 2.57882524 26.20604491 C2.54045774 22.55970786 2.37737817 20.48235711 0.15743637 17.52229691 C-1.7854212 15.87192971 -1.7854212 15.87192971 -3.9375 16.0625 C-4.2675 15.0725 -4.5975 14.0825 -4.9375 13.0625 C-7.57291018 10.65254634 -7.57291018 10.65254634 -10.9375 10.0625 C-10.9375 9.4025 -10.9375 8.7425 -10.9375 8.0625 C-11.5975 8.0625 -12.2575 8.0625 -12.9375 8.0625 C-12.9375 7.4025 -12.9375 6.7425 -12.9375 6.0625 C-16.58666147 4.02939575 -20.25938898 2.04268728 -23.9375 0.0625 C-24.99839844 -0.5253125 -26.05929688 -1.113125 -27.15234375 -1.71875 C-68.18107347 -23.5496727 -121.8705752 -17.18946658 -162.9375 1.0625 Z " fill="#0E0F10" transform="translate(241.9375,176.9375)"/>
<path d="M0 0 C0.8786824 -0.00570007 1.75736481 -0.01140015 2.66267395 -0.01727295 C4.52437143 -0.02669692 6.38608541 -0.03324656 8.24780273 -0.03710938 C11.0281514 -0.04668935 13.80771912 -0.07768367 16.58789062 -0.109375 C32.3056794 -0.20365075 47.49494756 1.43268661 62.58203125 6.015625 C63.36384766 6.23798828 64.14566406 6.46035156 64.95117188 6.68945312 C73.13088565 9.09065788 80.86054971 12.19038192 88.89453125 15.203125 C88.89453125 90.443125 88.89453125 165.683125 88.89453125 243.203125 C82.62453125 240.563125 76.35453125 237.923125 69.89453125 235.203125 C65.51875248 233.66648028 61.19357555 232.18981136 56.76953125 230.828125 C55.22265625 230.33505859 55.22265625 230.33505859 53.64453125 229.83203125 C28.45829107 221.91727129 -3.68557603 220.06231607 -29.10546875 228.203125 C-29.81429199 228.41743164 -30.52311523 228.63173828 -31.25341797 228.85253906 C-42.10010539 232.17250977 -52.12165893 236.86060846 -62.10546875 242.203125 C-63.48605469 242.93595703 -63.48605469 242.93595703 -64.89453125 243.68359375 C-69.12515241 245.98284438 -73.1020294 248.52328837 -77.10546875 251.203125 C-77.26899305 223.17849112 -77.39243148 195.15392875 -77.46815395 167.12891388 C-77.50424784 154.11637931 -77.55345664 141.10414118 -77.63354492 128.09179688 C-77.70331695 116.75017966 -77.74847688 105.40877714 -77.76408821 94.06695127 C-77.77321379 88.06145877 -77.79465897 82.05658044 -77.84557915 76.05128479 C-77.89312968 70.39752742 -77.90774182 64.74463658 -77.89722252 59.09069824 C-77.89914662 57.01703684 -77.9130491 54.94334615 -77.93990707 52.86985779 C-78.15706872 35.23812039 -78.15706872 35.23812039 -73.74330139 30.07507324 C-71.90174961 28.48656464 -71.90174961 28.48656464 -70.10546875 27.203125 C-69.10522781 26.3075607 -68.1052147 25.41174185 -67.10546875 24.515625 C-47.8347216 9.66109074 -24.55890064 0.12603421 0 0 Z " fill="#EAEEF2" transform="translate(333.10546875,161.796875)"/>
<path d="M0 0 C0.9403157 0.37040405 0.9403157 0.37040405 1.89962769 0.74829102 C9.46609963 3.72982359 16.99424398 6.77022256 24.4453125 10.03125 C41.77689047 17.53866787 59.39866971 24.55915519 77.0625 31.25 C80.97449959 32.74073771 84.77851723 34.33558646 88.5625 36.125 C93.86874588 38.59969654 99.31079205 40.52235135 104.86035156 42.36889648 C109.85618222 44.06259039 114.58962688 46.14326003 119.37548828 48.35791016 C124.51920917 50.68648073 129.76378669 52.76495853 135 54.875 C137.371172 55.84095377 139.742264 56.80710395 142.11328125 57.7734375 C146.80844911 59.68146435 151.51438498 61.55839926 156.23046875 63.4140625 C158.3829189 64.27577593 160.53526723 65.13774377 162.6875 66 C163.68483154 66.38373779 164.68216309 66.76747559 165.7097168 67.1628418 C171.4435325 69.48174114 174.93724426 71.43015721 178.3125 76.6875 C179.18262089 79.44143566 179.44572304 81.94667295 179.47363281 84.82592773 C179.48324036 85.63033798 179.4928479 86.43474823 179.50274658 87.26353455 C179.5091214 88.55427635 179.5091214 88.55427635 179.515625 89.87109375 C179.52132507 90.76361343 179.52702515 91.65613312 179.53289795 92.57569885 C179.54233118 94.46101705 179.54887526 96.34635161 179.55273438 98.23168945 C179.56245319 101.1111322 179.59349754 103.98986487 179.625 106.86914062 C179.63152929 108.70312077 179.63678005 110.53710601 179.640625 112.37109375 C179.6529718 113.22956406 179.6653186 114.08803436 179.67803955 114.97251892 C179.65875488 120.16181083 179.16774436 123.83225564 175.3125 127.6875 C170.69651884 128.03117159 167.39141729 127.22246661 163.125 125.5 C161.41763672 124.81357422 161.41763672 124.81357422 159.67578125 124.11328125 C155.78912145 122.4656264 151.9573898 120.7191155 148.12890625 118.94140625 C144.06178963 117.13066501 139.91255295 115.56190221 135.74609375 113.99609375 C126.75002678 110.56755856 117.85239777 106.88292078 108.9375 103.25 C107.79539062 102.78529297 106.65328125 102.32058594 105.4765625 101.84179688 C96.13522503 98.03626337 86.82383608 94.16215845 77.5234375 90.2578125 C67.55179457 86.07631906 57.58240666 81.91485177 47.46044922 78.10791016 C43.70772894 76.68178391 40.06030893 75.12369401 36.421875 73.42578125 C28.55551865 69.81015092 20.45376028 66.78905618 12.375 63.6875 C-13.44284324 53.75328322 -13.44284324 53.75328322 -19.74926758 50.68408203 C-25.2432388 48.04324761 -28.72789028 49.033607 -34.38671875 50.921875 C-35.71868679 51.42034564 -37.0480457 51.92583204 -38.375 52.4375 C-39.08052002 52.70554443 -39.78604004 52.97358887 -40.51293945 53.24975586 C-45.42445573 55.1390588 -50.20818244 57.23338785 -54.97265625 59.46875 C-59.1186615 61.32997826 -63.37104104 62.89431302 -67.62109375 64.5 C-70.96639432 65.79550493 -74.22449204 67.22993644 -77.4921875 68.70703125 C-79.98136803 69.81874711 -82.48242688 70.89156948 -85 71.9375 C-86.20076172 72.44023437 -86.20076172 72.44023437 -87.42578125 72.953125 C-89.6875 73.6875 -89.6875 73.6875 -93.6875 73.6875 C-93.6875 74.3475 -93.6875 75.0075 -93.6875 75.6875 C-94.99460938 76.14189453 -94.99460938 76.14189453 -96.328125 76.60546875 C-97.51921875 77.02441406 -98.7103125 77.44335938 -99.9375 77.875 C-101.09765625 78.28105469 -102.2578125 78.68710938 -103.453125 79.10546875 C-108.94332661 81.10424633 -114.30566113 83.416867 -119.6875 85.6875 C-121.67555137 86.5213816 -123.66382992 87.35472181 -125.65234375 88.1875 C-127.11945801 88.80202026 -127.11945801 88.80202026 -128.61621094 89.42895508 C-137.00555911 92.93813147 -145.39228022 96.41049689 -153.90234375 99.6171875 C-156.79508635 100.72884454 -159.6463789 101.91667575 -162.5 103.125 C-167.20669266 105.11102508 -171.95785126 106.92232634 -176.75 108.6875 C-182.28114179 110.72870831 -187.64275558 112.9697717 -192.984375 115.47265625 C-197.05809407 117.30347508 -201.23051966 118.85140513 -205.41015625 120.421875 C-208.66744321 121.67975459 -211.8602681 123.04626816 -215.0625 124.4375 C-223.34666351 127.864677 -223.34666351 127.864677 -227.6875 127.6875 C-230.48366962 125.68321837 -232.38307541 124.07370453 -233.14306641 120.61306763 C-233.31666254 118.06324166 -233.32801155 115.55926101 -233.28125 113.00390625 C-233.28129028 112.0707811 -233.28133057 111.13765594 -233.28137207 110.17625427 C-233.27602135 108.20687104 -233.25845778 106.23748803 -233.22949219 104.26831055 C-233.1876877 101.26349169 -233.18842185 98.26091969 -233.1953125 95.25585938 C-233.18481737 93.33852618 -233.17187754 91.42120448 -233.15625 89.50390625 C-233.15604858 88.60998672 -233.15584717 87.7160672 -233.15563965 86.7950592 C-233.03697197 80.49842435 -232.15825437 76.13196386 -227.5078125 71.53100586 C-224.00537254 69.2416253 -220.44665532 67.71724541 -216.5625 66.19140625 C-215.77915283 65.87598373 -214.99580566 65.56056122 -214.1887207 65.23558044 C-211.69143905 64.23236779 -209.18959856 63.24112864 -206.6875 62.25 C-205.03745465 61.58865301 -203.38771203 60.92655015 -201.73828125 60.26367188 C-193.64726926 57.01957949 -185.53745292 53.83252174 -177.38208008 50.75341797 C-174.66297956 49.67780024 -172.02133524 48.49288848 -169.375 47.25 C-164.21275292 44.84597545 -158.93816657 42.8803982 -153.59716797 40.92041016 C-148.80450776 39.1466588 -144.1738407 37.14720725 -139.54785156 34.97192383 C-136.64594779 33.66884123 -133.72118046 32.51604028 -130.74609375 31.390625 C-123.61254273 28.66875095 -116.52302455 25.84419272 -109.4375 23 C-107.46667816 22.20952304 -105.4957789 21.41923943 -103.52485657 20.62901306 C-102.19496965 20.09580469 -100.86512536 19.56248995 -99.5353241 19.02906799 C-95.21575932 17.29719517 -90.89229473 15.57540987 -86.56640625 13.859375 C-84.90109863 13.19748169 -84.90109863 13.19748169 -83.20214844 12.5222168 C-81.14242879 11.70388811 -79.08194212 10.88748599 -77.02050781 10.07348633 C-72.24008874 8.17108303 -67.52817625 6.18209928 -62.85546875 4.02734375 C-59.18059587 2.33570443 -55.56616284 0.860119 -51.6875 -0.3125 C-46.60935016 -1.9324827 -41.86397363 -3.95386758 -37.0625 -6.26171875 C-24.31284253 -11.90260339 -11.90656509 -4.70312105 0 0 Z " fill="#F4686E" transform="translate(276.6875,29.3125)"/>
<path d="M0 0 C3.63 0 7.26 0 11 0 C11.00238835 1.10528707 11.00477671 2.21057413 11.00723743 3.34935474 C11.06596939 30.21367315 11.14181294 57.07790142 11.23571491 83.94212055 C11.28072647 96.93332929 11.3201287 109.92451029 11.34643555 122.91577148 C11.36937228 134.23578293 11.40272164 145.55570697 11.44870156 156.87564915 C11.47269223 162.87234155 11.49138264 168.86894708 11.49761391 174.86568642 C11.50363839 180.50534802 11.52354222 186.14478717 11.55427551 191.78436661 C11.5630982 193.85845206 11.56676964 195.93256653 11.56500816 198.00667 C11.56336667 200.83037541 11.57995801 203.6533935 11.60127258 206.477005 C11.59642501 207.30482036 11.59157743 208.13263572 11.58658296 208.9855364 C11.5359667 213.1543922 11.5359667 213.1543922 13.37434357 216.74364156 C14.97512842 218.26917993 14.97512842 218.26917993 17.39526367 217.82861328 C19.9973031 217.00085793 22.25836426 216.0086072 24.67578125 214.7421875 C43.30772679 205.25160812 62.32281508 199.14389946 83 196 C84.07378906 195.81953125 85.14757812 195.6390625 86.25390625 195.453125 C117.63396313 191.65741426 152.26059741 199.5080114 178 218.17578125 C181.00914163 220.55354049 183.92108093 222.99431073 186.7265625 225.609375 C189.09332405 227.7698035 190.59965034 228.9387504 193.80859375 229.4296875 C197.94873347 228.87226355 199.92012435 226.91191241 202.8125 224.125 C212.66689543 215.22861031 224.40145469 208.24474065 237 204 C238.04414063 203.60425781 239.08828125 203.20851563 240.1640625 202.80078125 C262.94923341 194.53557219 288.17300997 192.00494426 312 197 C313.17304688 197.24492187 314.34609375 197.48984375 315.5546875 197.7421875 C332.07551286 201.55988334 348.65763143 206.74825783 363.73608398 214.56152344 C367.2820828 216.37073439 369.98970327 217.63586687 374 217 C376.58821994 214.41178006 376.24936008 212.64199264 376.28433573 209.11461771 C376.282401 208.2838895 376.28046626 207.4531613 376.2784729 206.59725952 C376.2871615 205.27775061 376.2871615 205.27775061 376.29602563 203.93158495 C376.31311076 200.9665605 376.31590942 198.00169089 376.31884766 195.03662109 C376.32813997 192.9181225 376.33830758 190.79962759 376.34928894 188.68113708 C376.37668164 182.91491832 376.39176572 177.14872411 376.40471697 171.38245726 C376.42030709 165.36192717 376.44711034 159.34144754 376.4727478 153.32095337 C376.51960876 141.91355582 376.55631738 130.50614885 376.58942068 119.09870398 C376.62759048 106.11459297 376.67701403 93.13053254 376.72740483 80.14646411 C376.83083347 53.43101352 376.92005821 26.71553046 377 0 C380.63 0 384.26 0 388 0 C388 75.57 388 151.14 388 229 C332.23 229.33 276.46 229.66 219 230 C218.01 232.97 218.01 232.97 217 236 C216.01 238.64 215.02 241.28 214 244 C200.8 244 187.6 244 174 244 C172.02 238.555 172.02 238.555 170 233 C166.32264324 229.32264324 165.34918029 229.62021448 160.29927063 229.60127258 C159.61640488 229.59463089 158.93353912 229.5879892 158.22998047 229.58114624 C155.92961957 229.56242721 153.62977458 229.56514803 151.3293457 229.56762695 C149.65691745 229.55852568 147.9844959 229.54811373 146.31208324 229.53649426 C141.82664627 229.50896113 137.34133807 229.49940703 132.85582733 229.49352264 C128.64938011 229.48529605 124.44308754 229.46092805 120.23669434 229.43786621 C107.92869548 229.37982367 95.62058523 229.34775495 83.3125 229.3125 C55.819375 229.209375 28.32625 229.10625 0 229 C0 153.43 0 77.86 0 0 Z " fill="#6597D9" transform="translate(56,201)"/>
<path d="M0 0 C0.9403157 0.37040405 0.9403157 0.37040405 1.89962769 0.74829102 C9.46609963 3.72982359 16.99424398 6.77022256 24.4453125 10.03125 C41.77689047 17.53866787 59.39866971 24.55915519 77.0625 31.25 C80.97449959 32.74073771 84.77851723 34.33558646 88.5625 36.125 C93.86874588 38.59969654 99.31079205 40.52235135 104.86035156 42.36889648 C109.85618222 44.06259039 114.58962688 46.14326003 119.37548828 48.35791016 C124.51920917 50.68648073 129.76378669 52.76495853 135 54.875 C137.371172 55.84095377 139.742264 56.80710395 142.11328125 57.7734375 C146.80844911 59.68146435 151.51438498 61.55839926 156.23046875 63.4140625 C158.3829189 64.27577593 160.53526723 65.13774377 162.6875 66 C163.68483154 66.38373779 164.68216309 66.76747559 165.7097168 67.1628418 C171.4435325 69.48174114 174.93724426 71.43015721 178.3125 76.6875 C179.18262089 79.44143566 179.44572304 81.94667295 179.47363281 84.82592773 C179.48324036 85.63033798 179.4928479 86.43474823 179.50274658 87.26353455 C179.5091214 88.55427635 179.5091214 88.55427635 179.515625 89.87109375 C179.52132507 90.76361343 179.52702515 91.65613312 179.53289795 92.57569885 C179.54233118 94.46101705 179.54887526 96.34635161 179.55273438 98.23168945 C179.56245319 101.1111322 179.59349754 103.98986487 179.625 106.86914062 C179.63152929 108.70312077 179.63678005 110.53710601 179.640625 112.37109375 C179.6529718 113.22956406 179.6653186 114.08803436 179.67803955 114.97251892 C179.65875488 120.16181083 179.16774436 123.83225564 175.3125 127.6875 C170.69651884 128.03117159 167.39141729 127.22246661 163.125 125.5 C161.41763672 124.81357422 161.41763672 124.81357422 159.67578125 124.11328125 C155.78912145 122.4656264 151.9573898 120.7191155 148.12890625 118.94140625 C144.06178963 117.13066501 139.91255295 115.56190221 135.74609375 113.99609375 C126.75002678 110.56755856 117.85239777 106.88292078 108.9375 103.25 C107.79539062 102.78529297 106.65328125 102.32058594 105.4765625 101.84179688 C96.13522503 98.03626337 86.82383608 94.16215845 77.5234375 90.2578125 C67.55179457 86.07631906 57.58240666 81.91485177 47.46044922 78.10791016 C43.70772894 76.68178391 40.06030893 75.12369401 36.421875 73.42578125 C28.55551865 69.81015092 20.45376028 66.78905618 12.375 63.6875 C-13.44284324 53.75328322 -13.44284324 53.75328322 -19.74926758 50.68408203 C-25.2432388 48.04324761 -28.72789028 49.033607 -34.38671875 50.921875 C-35.71868679 51.42034564 -37.0480457 51.92583204 -38.375 52.4375 C-39.08052002 52.70554443 -39.78604004 52.97358887 -40.51293945 53.24975586 C-45.42445573 55.1390588 -50.20818244 57.23338785 -54.97265625 59.46875 C-59.1186615 61.32997826 -63.37104104 62.89431302 -67.62109375 64.5 C-70.96639432 65.79550493 -74.22449204 67.22993644 -77.4921875 68.70703125 C-79.98136803 69.81874711 -82.48242688 70.89156948 -85 71.9375 C-86.20076172 72.44023437 -86.20076172 72.44023437 -87.42578125 72.953125 C-89.6875 73.6875 -89.6875 73.6875 -93.6875 73.6875 C-93.6875 74.3475 -93.6875 75.0075 -93.6875 75.6875 C-94.99460938 76.14189453 -94.99460938 76.14189453 -96.328125 76.60546875 C-97.51921875 77.02441406 -98.7103125 77.44335938 -99.9375 77.875 C-101.09765625 78.28105469 -102.2578125 78.68710938 -103.453125 79.10546875 C-108.94332661 81.10424633 -114.30566113 83.416867 -119.6875 85.6875 C-121.67555137 86.5213816 -123.66382992 87.35472181 -125.65234375 88.1875 C-127.11945801 88.80202026 -127.11945801 88.80202026 -128.61621094 89.42895508 C-137.00555911 92.93813147 -145.39228022 96.41049689 -153.90234375 99.6171875 C-156.79508635 100.72884454 -159.6463789 101.91667575 -162.5 103.125 C-167.20669266 105.11102508 -171.95785126 106.92232634 -176.75 108.6875 C-182.28114179 110.72870831 -187.64275558 112.9697717 -192.984375 115.47265625 C-197.05809407 117.30347508 -201.23051966 118.85140513 -205.41015625 120.421875 C-208.66744321 121.67975459 -211.8602681 123.04626816 -215.0625 124.4375 C-223.34666351 127.864677 -223.34666351 127.864677 -227.6875 127.6875 C-230.48366962 125.68321837 -232.38307541 124.07370453 -233.14306641 120.61306763 C-233.31666254 118.06324166 -233.32801155 115.55926101 -233.28125 113.00390625 C-233.28129028 112.0707811 -233.28133057 111.13765594 -233.28137207 110.17625427 C-233.27602135 108.20687104 -233.25845778 106.23748803 -233.22949219 104.26831055 C-233.1876877 101.26349169 -233.18842185 98.26091969 -233.1953125 95.25585938 C-233.18481737 93.33852618 -233.17187754 91.42120448 -233.15625 89.50390625 C-233.15604858 88.60998672 -233.15584717 87.7160672 -233.15563965 86.7950592 C-233.03697197 80.49842435 -232.15825437 76.13196386 -227.5078125 71.53100586 C-224.00537254 69.2416253 -220.44665532 67.71724541 -216.5625 66.19140625 C-215.77915283 65.87598373 -214.99580566 65.56056122 -214.1887207 65.23558044 C-211.69143905 64.23236779 -209.18959856 63.24112864 -206.6875 62.25 C-205.03745465 61.58865301 -203.38771203 60.92655015 -201.73828125 60.26367188 C-193.64726926 57.01957949 -185.53745292 53.83252174 -177.38208008 50.75341797 C-174.66297956 49.67780024 -172.02133524 48.49288848 -169.375 47.25 C-164.21275292 44.84597545 -158.93816657 42.8803982 -153.59716797 40.92041016 C-148.80450776 39.1466588 -144.1738407 37.14720725 -139.54785156 34.97192383 C-136.64594779 33.66884123 -133.72118046 32.51604028 -130.74609375 31.390625 C-123.61254273 28.66875095 -116.52302455 25.84419272 -109.4375 23 C-107.46667816 22.20952304 -105.4957789 21.41923943 -103.52485657 20.62901306 C-102.19496965 20.09580469 -100.86512536 19.56248995 -99.5353241 19.02906799 C-95.21575932 17.29719517 -90.89229473 15.57540987 -86.56640625 13.859375 C-84.90109863 13.19748169 -84.90109863 13.19748169 -83.20214844 12.5222168 C-81.14242879 11.70388811 -79.08194212 10.88748599 -77.02050781 10.07348633 C-72.24008874 8.17108303 -67.52817625 6.18209928 -62.85546875 4.02734375 C-59.18059587 2.33570443 -55.56616284 0.860119 -51.6875 -0.3125 C-46.60935016 -1.9324827 -41.86397363 -3.95386758 -37.0625 -6.26171875 C-24.31284253 -11.90260339 -11.90656509 -4.70312105 0 0 Z M-35.265625 5.84765625 C-36.33570801 6.30825439 -37.40579102 6.76885254 -38.50830078 7.2434082 C-39.63993652 7.7405835 -40.77157227 8.23775879 -41.9375 8.75 C-44.29404232 9.76615511 -46.65081329 10.78178012 -49.0078125 11.796875 C-50.15411133 12.29380859 -51.30041016 12.79074219 -52.48144531 13.30273438 C-56.57690393 15.07165314 -60.68547566 16.80609187 -64.8125 18.5 C-65.39015106 18.73749466 -65.96780212 18.97498932 -66.56295776 19.21968079 C-70.42776379 20.79812069 -74.30915589 22.30688622 -78.22912598 23.74475098 C-87.34903404 27.09213948 -96.27140411 30.83541051 -105.1875 34.6875 C-113.91397241 38.45766499 -122.64581381 42.09774256 -131.56771851 45.38182068 C-140.5393655 48.7074644 -149.32056929 52.5006776 -158.12939453 56.23120117 C-165.60391135 59.39228247 -173.05144818 62.52477183 -180.71875 65.1953125 C-188.99730937 68.08153073 -197.01174564 71.54044245 -205.0625 75 C-206.58838034 75.65207035 -208.11442124 76.30376512 -209.640625 76.95507812 C-213.32508721 78.52756823 -217.00615635 80.10764346 -220.6875 81.6875 C-220.6875 91.9175 -220.6875 102.1475 -220.6875 112.6875 C-215.4395195 110.93817317 -210.3722995 109.23704598 -205.265625 107.19140625 C-203.50109985 106.48576538 -203.50109985 106.48576538 -201.70092773 105.76586914 C-200.44639466 105.26072137 -199.19192018 104.75542806 -197.9375 104.25 C-196.62119586 103.72187217 -195.3048706 103.19379696 -193.98852539 102.66577148 C-183.50001473 98.45054933 -173.04991113 94.14374072 -162.62011719 89.78540039 C-157.23529227 87.5406843 -151.84238184 85.34841508 -146.38671875 83.28125 C-137.78679871 80.00252643 -129.35583366 76.33138953 -120.90234375 72.69604492 C-107.22392898 66.82034656 -107.22392898 66.82034656 -101.48828125 64.80859375 C-91.36568722 61.23172886 -81.54412283 56.79496646 -71.66186523 52.61083984 C-61.21265748 48.190891 -50.76583107 43.85648278 -40.10424805 39.97216797 C-37.65338303 39.05066374 -35.27498879 38.09007372 -32.88037109 37.04174805 C-27.2493901 34.65338197 -23.06758968 35.77518026 -17.45703125 37.92578125 C-15.19407113 38.89777411 -12.94152676 39.89458917 -10.703125 40.921875 C-7.50935217 42.36754828 -4.26644302 43.62904429 -0.98828125 44.87109375 C8.21607418 48.37757762 17.28605415 52.2066211 26.375 56 C38.42921837 61.0290356 50.50482971 65.99081708 62.6394043 70.82299805 C66.83698595 72.49501645 71.02637102 74.18632267 75.2109375 75.890625 C75.82517578 76.14075851 76.43941406 76.39089203 77.07226562 76.64860535 C78.30992607 77.15287622 79.54752566 77.65729647 80.7850647 78.16186523 C89.72941537 81.80853292 98.67761512 85.44425784 107.65234375 89.015625 C108.32686584 89.28425354 109.00138794 89.55288208 109.6963501 89.82965088 C112.8975222 91.10401117 116.09987274 92.37518029 119.30419922 93.64160156 C125.45745164 96.08709191 131.51278314 98.65749277 137.52368164 101.43310547 C142.74220948 103.78036941 148.06061946 105.88115365 153.375 108 C154.50099609 108.45439453 155.62699219 108.90878906 156.78710938 109.37695312 C157.85896484 109.80556641 158.93082031 110.23417969 160.03515625 110.67578125 C161.00203369 111.06290283 161.96891113 111.45002441 162.96508789 111.84887695 C165.21095025 112.79964315 165.21095025 112.79964315 167.3125 112.6875 C167.3125 102.4575 167.3125 92.2275 167.3125 81.6875 C151.30258984 74.7194562 135.28520129 67.99948002 118.97241211 61.78613281 C106.89014625 57.17986385 95.00810422 52.16451948 83.15820312 46.99414062 C78.91464733 45.16089901 74.66982765 43.4276946 70.3125 41.8828125 C62.91029362 39.23688695 55.67601671 36.18286906 48.41500854 33.17630005 C34.62202529 27.4674358 20.80215545 21.84799881 6.88671875 16.44384766 C1.52649653 14.35851628 -3.81147824 12.23646878 -9.1171875 10.015625 C-10.13288818 9.59144287 -11.14858887 9.16726074 -12.19506836 8.73022461 C-14.08462633 7.93683384 -15.97112539 7.13609871 -17.85375977 6.32641602 C-18.68447998 5.97764404 -19.5152002 5.62887207 -20.37109375 5.26953125 C-21.44701782 4.80897339 -21.44701782 4.80897339 -22.54467773 4.33911133 C-27.35979303 2.87488178 -30.74973437 3.87890778 -35.265625 5.84765625 Z " fill="#151112" transform="translate(276.6875,29.3125)"/>
<path d="M0 0 C0.66 0.33 1.32 0.66 2 1 C1.34 1.66 0.68 2.32 0 3 C-0.29934503 4.85086895 -0.29934503 4.85086895 -0.24609566 6.9942646 C-0.25007775 7.83426164 -0.25405985 8.67425867 -0.25816262 9.53971016 C-0.25233693 10.46771207 -0.24651125 11.39571398 -0.24050903 12.35183716 C-0.24221788 13.33359857 -0.24392673 14.31535999 -0.24568737 15.32687175 C-0.24899821 18.63742088 -0.23795237 21.94777013 -0.22705078 25.25830078 C-0.22648701 27.62309769 -0.22680256 29.98789495 -0.22793579 32.35269165 C-0.22845176 38.12099262 -0.21975582 43.88922744 -0.20706047 49.65751328 C-0.19278433 56.36775777 -0.18977197 63.07799275 -0.18748413 69.78825031 C-0.18310388 81.75549468 -0.16978586 93.72271183 -0.15087891 105.68994141 C-0.13252862 117.31689314 -0.11836796 128.94383749 -0.10986328 140.57080078 C-0.10933783 141.28715427 -0.10881239 142.00350776 -0.10827102 142.74156894 C-0.105661 146.33520472 -0.10313357 149.92884056 -0.10064721 153.52247643 C-0.07990445 183.3483367 -0.04452159 213.17416517 0 243 C-0.66 243 -1.32 243 -2 243 C-2 244.65 -2 246.3 -2 248 C-2.33 248 -2.66 248 -3 248 C-3.06840768 216.98394165 -3.12151345 185.96790322 -3.15319599 154.95178737 C-3.1569482 151.29175135 -3.16083116 147.63171548 -3.16479492 143.97167969 C-3.16558185 143.24301892 -3.16636878 142.51435816 -3.16717956 141.76361677 C-3.18024076 129.95841849 -3.20389852 118.15326395 -3.23145839 106.34809163 C-3.25949275 94.23886216 -3.27617208 82.12965563 -3.28226548 70.02039504 C-3.28638603 62.54566891 -3.2994099 55.07106639 -3.3237494 47.5963783 C-3.34145142 41.86902729 -3.3433706 36.14175585 -3.33932304 30.41438293 C-3.34015076 28.06172167 -3.34614957 25.70905589 -3.35761642 23.35642242 C-3.37247261 20.15217428 -3.36897855 16.94846137 -3.36076355 13.74420166 C-3.36950207 12.80646164 -3.3782406 11.86872162 -3.38724393 10.90256524 C-3.34328097 4.5882406 -3.34328097 4.5882406 -1.47745228 1.3909874 C-0.98989303 0.93196156 -0.50233377 0.47293571 0 0 Z " fill="#878787" transform="translate(47,190)"/>
<path d="M0 0 C3.3 0 6.6 0 10 0 C10 70.62 10 141.24 10 214 C9.67 214 9.34 214 9 214 C8.99576806 212.9195598 8.99153612 211.83911961 8.98717594 210.7259388 C8.88411358 184.47120851 8.77538224 158.21650641 8.66066074 131.96182442 C8.60531506 119.26541196 8.55183088 106.56899669 8.50268555 93.87255859 C8.45986017 82.81005395 8.41358638 71.74757011 8.36312145 60.68509758 C8.33650723 54.82427297 8.31165384 48.96345253 8.29092598 43.10260391 C8.27138202 37.59188378 8.24724502 32.0812033 8.21950912 26.57051849 C8.21012679 24.54276879 8.20245579 22.51501037 8.19658089 20.48724747 C8.18833976 17.72909484 8.17406877 14.97103896 8.15821838 12.21292114 C8.15675122 10.99601095 8.15675122 10.99601095 8.15525442 9.75451672 C8.21500443 5.74689061 8.21500443 5.74689061 7 2 C4.03 1.505 4.03 1.505 1 1 C1 72.28 1 143.56 1 217 C0.67 217 0.34 217 0 217 C0 145.39 0 73.78 0 0 Z " fill="#79A2D0" transform="translate(57,202)"/>
<path d="M0 0 C1.65 0.33 3.3 0.66 5 1 C4.67 1.66 4.34 2.32 4 3 C3.34 2.67 2.68 2.34 2 2 C2 72.29 2 142.58 2 215 C0.68 215.33 -0.64 215.66 -2 216 C-1.505 215.01 -1.505 215.01 -1 214 C-0.89194527 211.20388826 -0.84509008 208.43201747 -0.84178162 205.63522339 C-0.83684364 204.75963433 -0.83190566 203.88404528 -0.82681805 202.98192322 C-0.81138821 200.03075679 -0.80306762 197.07961221 -0.79467773 194.12841797 C-0.78510352 192.01977342 -0.77509371 189.9111308 -0.76467896 187.80249023 C-0.73757435 182.06313464 -0.71659493 176.32377078 -0.69667697 170.58438635 C-0.6748516 164.59189683 -0.64744608 158.59943296 -0.62062073 152.60696411 C-0.57064708 141.25268561 -0.52572562 129.89839292 -0.48259836 118.54408658 C-0.43326585 105.62044809 -0.37833297 92.69683534 -0.32291877 79.77322173 C-0.20902703 53.18217181 -0.1022037 26.59109723 0 0 Z " fill="#78A0D3" transform="translate(433,202)"/>
<path d="M0 0 C3.63 0 7.26 0 11 0 C11 75.24 11 150.48 11 228 C10.67 228 10.34 228 10 228 C9.86842977 203.84882861 9.73799394 179.69765131 9.60884857 155.54646683 C9.54883649 144.32850104 9.48847593 133.11053734 9.42724609 121.89257812 C9.37377649 112.09620503 9.32101049 102.29982842 9.26903296 92.50344729 C9.24157904 87.3334645 9.21381131 82.16348389 9.18519592 76.99350739 C9.04709029 51.99540133 8.96648594 26.99850349 9 2 C6.36 2 3.72 2 1 2 C0.67 1.34 0.34 0.68 0 0 Z " fill="#719AC8" transform="translate(433,201)"/>
<path d="M0 0 C6.49090909 0.89090909 6.49090909 0.89090909 9.625 1.5625 C12.13195919 2.02430827 14.45661228 2.07266822 17 2 C17.33 3.65 17.66 5.3 18 7 C24.88824069 9.40990104 24.88824069 9.40990104 32 11 C32 11.66 32 12.32 32 13 C33.98 13 35.96 13 38 13 C38 13.66 38 14.32 38 15 C39.98 15.33 41.96 15.66 44 16 C44 16.66 44 17.32 44 18 C36.25966142 15.86006861 28.87334501 13.08261086 21.4375 10.0625 C20.36564453 9.63259766 19.29378906 9.20269531 18.18945312 8.75976562 C12.06988047 6.29322227 6.00535757 3.7331892 0 1 C0 0.67 0 0.34 0 0 Z " fill="#D46B73" transform="translate(293,80)"/>
<path d="M0 0 C-2.58948023 1.32694221 -5.18260073 2.52071358 -7.88671875 3.59375 C-8.64871582 3.89740479 -9.41071289 4.20105957 -10.19580078 4.51391602 C-11.01806152 4.83932373 -11.84032227 5.16473145 -12.6875 5.5 C-18.74021708 7.89915752 -24.78427424 10.31536391 -30.80859375 12.78515625 C-31.94143799 13.24664062 -33.07428223 13.708125 -34.24145508 14.18359375 C-36.47939674 15.09562885 -38.71496598 16.01350936 -40.94799805 16.9375 C-41.96804932 17.35128906 -42.98810059 17.76507813 -44.0390625 18.19140625 C-45.40345459 18.75130249 -45.40345459 18.75130249 -46.79541016 19.32250977 C-49 20 -49 20 -51 19 C-47.55930376 16.70620251 -46.27709699 16 -42 16 C-42 15.34 -42 14.68 -42 14 C-40.68 14 -39.36 14 -38 14 C-38 13.34 -38 12.68 -38 12 C-36.35 12 -34.7 12 -33 12 C-33 11.34 -33 10.68 -33 10 C-31.90042969 9.61328125 -30.80085938 9.2265625 -29.66796875 8.828125 C-28.95672852 8.57756348 -28.24548828 8.32700195 -27.51269531 8.06884766 C-25.95636481 7.52076571 -24.39972123 6.97357201 -22.84277344 6.42724609 C-17.62650565 4.59189261 -12.4461262 2.68112587 -7.296875 0.6640625 C-4.76724281 -0.06729374 -2.61985329 -0.12077338 0 0 Z " fill="#DB6E75" transform="translate(251,63)"/>
<path d="M0 0 C1.32 0.66 2.64 1.32 4 2 C-9.52723564 8.06136659 -23.01686471 14.06109827 -37 19 C-37.66 18.34 -38.32 17.68 -39 17 C-38.28714844 16.74605469 -37.57429688 16.49210937 -36.83984375 16.23046875 C-30.32753023 13.89024303 -23.93844137 11.55564543 -17.8125 8.3125 C-15 7 -15 7 -11 7 C-11 6.34 -11 5.68 -11 5 C-9.35 5 -7.7 5 -6 5 C-6 4.34 -6 3.68 -6 3 C-5.195625 2.87625 -4.39125 2.7525 -3.5625 2.625 C-2.716875 2.41875 -1.87125 2.2125 -1 2 C-0.67 1.34 -0.34 0.68 0 0 Z " fill="#D86C74" transform="translate(156,98)"/>
<path d="M0 0 C2.64 0.99 5.28 1.98 8 3 C8 13.23 8 23.46 8 34 C6.02 33.34 4.04 32.68 2 32 C3.32 31.67 4.64 31.34 6 31 C6 22.09 6 13.18 6 4 C4.02 3.34 2.04 2.68 0 2 C0 1.34 0 0.68 0 0 Z " fill="#BB5D63" transform="translate(436,108)"/>
<path d="M0 0 C3.63 0 7.26 0 11 0 C11.33 1.32 11.66 2.64 12 4 C13.65 4.33 15.3 4.66 17 5 C17 5.66 17 6.32 17 7 C18.98 6.67 20.96 6.34 23 6 C23 6.99 23 7.98 23 9 C23.78375 9.103125 24.5675 9.20625 25.375 9.3125 C28 10 28 10 30 13 C23.40135603 10.88202865 16.93935389 8.49709568 10.5 5.9375 C9.14261719 5.4105957 9.14261719 5.4105957 7.7578125 4.87304688 C6.89929688 4.53208984 6.04078125 4.19113281 5.15625 3.83984375 C4.38087891 3.53425537 3.60550781 3.22866699 2.80664062 2.91381836 C1 2 1 2 0 0 Z " fill="#DE6D73" transform="translate(338,98)"/>
<path d="M0 0 C3.51705958 0.65271556 6.89325077 1.51393024 10.3125 2.5625 C11.19550781 2.83191406 12.07851563 3.10132812 12.98828125 3.37890625 C13.65214844 3.58386719 14.31601562 3.78882812 15 4 C15 4.66 15 5.32 15 6 C15.81017578 6.18755859 15.81017578 6.18755859 16.63671875 6.37890625 C19.41075335 7.10795005 22.09709697 8.01377497 24.8125 8.9375 C29.18404172 10.40894917 33.55058593 11.78652343 38 13 C37.67 13.99 37.34 14.98 37 16 C36.22398437 15.69707031 35.44796875 15.39414063 34.6484375 15.08203125 C28.73043682 12.78686392 22.81182792 10.57441086 16.8125 8.5 C10.95051462 6.4322224 5.46301996 3.95808684 0 1 C0 0.67 0 0.34 0 0 Z " fill="#D66E73" transform="translate(252,63)"/>
<path d="M0 0 C1.04865234 -0.00128906 2.09730469 -0.00257813 3.17773438 -0.00390625 C4.26248047 -0.00003906 5.34722656 0.00382812 6.46484375 0.0078125 C7.55345703 0.00394531 8.64207031 0.00007813 9.76367188 -0.00390625 C11.3347168 -0.00197266 11.3347168 -0.00197266 12.9375 0 C13.89019775 0.00112793 14.84289551 0.00225586 15.82446289 0.00341797 C18.1694768 0.12112394 20.1588968 0.4676716 22.40234375 1.1328125 C22.40234375 1.7928125 22.40234375 2.4528125 22.40234375 3.1328125 C21.63043701 3.12757568 20.85853027 3.12233887 20.06323242 3.11694336 C16.57211112 3.09618008 13.0810028 3.08315439 9.58984375 3.0703125 C8.37490234 3.06193359 7.15996094 3.05355469 5.90820312 3.04492188 C4.74482422 3.04169922 3.58144531 3.03847656 2.3828125 3.03515625 C1.30926514 3.02991943 0.23571777 3.02468262 -0.87036133 3.01928711 C-3.6926499 3.01086662 -3.6926499 3.01086662 -6.59765625 4.1328125 C-6.59765625 3.4728125 -6.59765625 2.8128125 -6.59765625 2.1328125 C-7.91765625 1.8028125 -9.23765625 1.4728125 -10.59765625 1.1328125 C-7.00475287 0.31118114 -3.68272935 0.00435495 0 0 Z " fill="#638CBD" transform="translate(151.59765625,395.8671875)"/>
<path d="M0 0 C3.63 0 7.26 0 11 0 C10.67 12.54 10.34 25.08 10 38 C9.67 38 9.34 38 9 38 C9 26.12 9 14.24 9 2 C6.36 2 3.72 2 1 2 C0.67 1.34 0.34 0.68 0 0 Z " fill="#608AC1" transform="translate(433,201)"/>
<path d="M0 0 C3.08415108 1.17264477 6.04698755 2.53032945 9 4 C5.06204091 5.22419163 2.83887763 4.48320272 -1 3 C-1 3.66 -1 4.32 -1 5 C-2.8125 5.625 -2.8125 5.625 -5 6 C-5.99 5.34 -6.98 4.68 -8 4 C-7.34 4 -6.68 4 -6 4 C-6.33 3.34 -6.66 2.68 -7 2 C-7.99 2 -8.98 2 -10 2 C-10 1.34 -10 0.68 -10 0 C-6.72746119 -1.63626941 -3.44504576 -0.78111021 0 0 Z " fill="#EA6A71" transform="translate(255,34)"/>
<path d="M0 0 C0.33 0.66 0.66 1.32 1 2 C-0.32 2.33 -1.64 2.66 -3 3 C-3 11.91 -3 20.82 -3 30 C0.96 29.505 0.96 29.505 5 29 C3 31 3 31 -4 33 C-4 22.77 -4 12.54 -4 2 C-2.68 1.34 -1.36 0.68 0 0 Z " fill="#C5686A" transform="translate(60,109)"/>
<path d="M0 0 C0 0.99 0 1.98 0 3 C-0.66 3 -1.32 3 -2 3 C-2 3.66 -2 4.32 -2 5 C-6.8331285 7.05041815 -11.70485259 9 -17 9 C-17 8.34 -17 7.68 -17 7 C-15.10435574 6.20788071 -13.20847629 5.41632424 -11.3125 4.625 C-10.25675781 4.18414062 -9.20101562 3.74328125 -8.11328125 3.2890625 C-5.41643343 2.17242538 -2.71283736 1.07708199 0 0 Z " fill="#DA6B73" transform="translate(211,48)"/>
<path d="M0 0 C-1 3 -1 3 -2.8125 4.0625 C-3.534375 4.371875 -4.25625 4.68125 -5 5 C-5.639375 5.350625 -6.27875 5.70125 -6.9375 6.0625 C-10.63689398 7.74404272 -13.11175392 8.29608203 -17 7 C-14.55213773 4.55213773 -12.25682658 3.69919356 -9.0625 2.375 C-7.47115234 1.70597656 -7.47115234 1.70597656 -5.84765625 1.0234375 C-3 0 -3 0 0 0 Z " fill="#E16C75" transform="translate(97,95)"/>
<path d="M0 0 C7.78719283 1.85265903 14.81265312 4.4827877 22 8 C18.44757118 9.18414294 17.30169438 8.69535532 13.8125 7.5625 C12.91144531 7.27503906 12.01039063 6.98757812 11.08203125 6.69140625 C10.05142578 6.34916016 10.05142578 6.34916016 9 6 C9 5.34 9 4.68 9 4 C7.02 4 5.04 4 3 4 C3 3.34 3 2.68 3 2 C1.68 2.33 0.36 2.66 -1 3 C-0.67 2.01 -0.34 1.02 0 0 Z " fill="#DC6F76" transform="translate(393,91)"/>
<path d="M0 0 C4.84659077 0.59104765 8.60748167 1.97944157 13 4 C13 4.99 13 5.98 13 7 C6.86592242 6.63195535 4.26093821 5.15701288 0 1 C0 0.67 0 0.34 0 0 Z " fill="#E16C73" transform="translate(422,103)"/>
<path d="M0 0 C2.58653115 0.92934666 5.16898256 1.86806196 7.75 2.8125 C8.47960937 3.07353516 9.20921875 3.33457031 9.9609375 3.60351562 C13.74078193 4.99518562 16.92508165 6.3054005 20 9 C18.02 9.33 16.04 9.66 14 10 C13.67 9.34 13.34 8.68 13 8 C10.97536745 7.34786708 10.97536745 7.34786708 9 7 C9 6.34 9 5.68 9 5 C6.03 4.01 3.06 3.02 0 2 C0 1.34 0 0.68 0 0 Z " fill="#D96E75" transform="translate(278,44)"/>
<path d="M0 0 C6.49090909 0.89090909 6.49090909 0.89090909 9.625 1.5625 C12.13195919 2.02430827 14.45661228 2.07266822 17 2 C17.33 2.99 17.66 3.98 18 5 C11.36906706 4.65226572 5.946072 4.03910346 0 1 C0 0.67 0 0.34 0 0 Z " fill="#E56C72" transform="translate(293,80)"/>
<path d="M0 0 C1.98 0 3.96 0 6 0 C3.12145363 2.33088789 0.38015172 3.83224797 -3.0625 5.1875 C-3.91972656 5.53167969 -4.77695313 5.87585938 -5.66015625 6.23046875 C-8 7 -8 7 -11 7 C-11 6.34 -11 5.68 -11 5 C-10.28972656 4.80664062 -9.57945313 4.61328125 -8.84765625 4.4140625 C-7.92855469 4.15367187 -7.00945312 3.89328125 -6.0625 3.625 C-4.68771484 3.24214844 -4.68771484 3.24214844 -3.28515625 2.8515625 C-0.83254913 2.23339896 -0.83254913 2.23339896 0 0 Z " fill="#D56E73" transform="translate(93,124)"/>
<path d="M0 0 C2.97 0.495 2.97 0.495 6 1 C2.2440786 4.42931954 -2.23466745 5.56429083 -7 7 C-7 6.34 -7 5.68 -7 5 C-6.34 5 -5.68 5 -5 5 C-5 4.01 -5 3.02 -5 2 C-3.35 2.33 -1.7 2.66 0 3 C0 2.01 0 1.02 0 0 Z " fill="#E06D72" transform="translate(76,130)"/>
<path d="M0 0 C4.95 1.98 4.95 1.98 10 4 C10 4.66 10 5.32 10 6 C9.01 6 8.02 6 7 6 C7 5.34 7 4.68 7 4 C4.69 4.66 2.38 5.32 0 6 C-1.125 2.25 -1.125 2.25 0 0 Z " fill="#E46D73" transform="translate(370,81)"/>
<path d="M0 0 C0.33 0.66 0.66 1.32 1 2 C-2.465 3.485 -2.465 3.485 -6 5 C-6.99 3.68 -7.98 2.36 -9 1 C-5.92677456 0.08941469 -3.19902639 -0.08886184 0 0 Z " fill="#6A93CF" transform="translate(124,401)"/>
<path d="M0 0 C-1.12312966 3.36938898 -2.53174093 4.53174093 -5 7 C-5.66 6.34 -6.32 5.68 -7 5 C-7.66 5 -8.32 5 -9 5 C-9 4.34 -9 3.68 -9 3 C-3.375 0 -3.375 0 0 0 Z " fill="#6B96CD" transform="translate(290,407)"/>
<path d="M0 0 C-2.34591852 2.7710688 -4.14776201 3.52059284 -7.6875 4.1875 C-8.49574219 4.34605469 -9.30398437 4.50460938 -10.13671875 4.66796875 C-11.05904297 4.83232422 -11.05904297 4.83232422 -12 5 C-12.33 4.34 -12.66 3.68 -13 3 C-4.57142857 -0.42857143 -4.57142857 -0.42857143 0 0 Z " fill="#DB6D73" transform="translate(137,80)"/>
<path d="M0 0 C-2.84655869 1.44277632 -5.71639675 2.81175104 -8.625 4.125 C-9.40101563 4.47820312 -10.17703125 4.83140625 -10.9765625 5.1953125 C-13 6 -13 6 -15 6 C-14 3 -14 3 -12.109375 2.05078125 C-4.24325381 -0.41063747 -4.24325381 -0.41063747 0 0 Z " fill="#CE6A70" transform="translate(251,63)"/>
<path d="M0 0 C2.64 0.99 5.28 1.98 8 3 C7.67 4.32 7.34 5.64 7 7 C5.68 6.34 4.36 5.68 3 5 C3 4.34 3 3.68 3 3 C2.01 2.67 1.02 2.34 0 2 C0 1.34 0 0.68 0 0 Z " fill="#688EC1" transform="translate(420,416)"/>
<path d="M0 0 C0.33 0.66 0.66 1.32 1 2 C1.99 2 2.98 2 4 2 C4 1.34 4 0.68 4 0 C5.32 0.33 6.64 0.66 8 1 C6.73581754 1.69965443 5.46334598 2.38434763 4.1875 3.0625 C3.47980469 3.44535156 2.77210937 3.82820313 2.04296875 4.22265625 C0 5 0 5 -3 4 C-2.34 4 -1.68 4 -1 4 C-0.67 2.68 -0.34 1.36 0 0 Z " fill="#E06E76" transform="translate(107,117)"/>
<path d="M0 0 C0 0.99 0 1.98 0 3 C-3.4019487 5.09350689 -6.05272412 5.17942163 -10 5 C-7.90217213 2.90217213 -6.6200793 2.3490604 -3.875 1.375 C-3.15054688 1.11460938 -2.42609375 0.85421875 -1.6796875 0.5859375 C-0.84824219 0.29589844 -0.84824219 0.29589844 0 0 Z " fill="#CF676E" transform="translate(186,58)"/>
<path d="M0 0 C0 0.66 0 1.32 0 2 C0.99 2.33 1.98 2.66 3 3 C-1.37934119 2.48041715 -5.68803391 1.94324258 -10 1 C-10 0.67 -10 0.34 -10 0 C-6.33694766 -0.74926071 -3.57644848 -1.2380014 0 0 Z " fill="#081223" transform="translate(373,397)"/>
<path d="M0 0 C-3.1254959 2.64465038 -6.08788267 3.84414715 -10 5 C-8.20177069 -0.39468792 -5.09771267 -0.22656501 0 0 Z " fill="#1D0203" transform="translate(98,93)"/>
<path d="M0 0 C2.97 0.33 5.94 0.66 9 1 C9 1.66 9 2.32 9 3 C9.66 3 10.32 3 11 3 C10.67 3.66 10.34 4.32 10 5 C5.05 3.02 5.05 3.02 0 1 C0 0.67 0 0.34 0 0 Z " fill="#CE6970" transform="translate(381,116)"/>
<path d="M0 0 C4.44870215 -0.39253254 7.14243493 0.84694043 11 3 C10.67 3.66 10.34 4.32 10 5 C5.05 3.02 5.05 3.02 0 1 C0 0.67 0 0.34 0 0 Z " fill="#D76E74" transform="translate(369,111)"/>
<path d="M0 0 C-0.66 1.32 -1.32 2.64 -2 4 C-3.65 3.67 -5.3 3.34 -7 3 C-7 2.34 -7 1.68 -7 1 C-4.53721199 -0.231394 -2.7204945 -0.07159196 0 0 Z " fill="#EC6C74" transform="translate(219,47)"/>
<path d="M0 0 C0.66 0.99 1.32 1.98 2 3 C-1 5 -1 5 -4 5 C-4 4.01 -4 3.02 -4 2 C-2.68 1.34 -1.36 0.68 0 0 Z " fill="#6892C8" transform="translate(80,416)"/>
<path d="M0 0 C-0.99 1.485 -0.99 1.485 -2 3 C-3.32 3 -4.64 3 -6 3 C-6.33 2.01 -6.66 1.02 -7 0 C-3.98968256 -0.93423645 -3.13349732 -1.04449911 0 0 Z " fill="#668EC0" transform="translate(311,401)"/>
<path d="M0 0 C2.64 0.99 5.28 1.98 8 3 C7.67 3.66 7.34 4.32 7 5 C4.69 4.34 2.38 3.68 0 3 C0 2.01 0 1.02 0 0 Z " fill="#E36D76" transform="translate(308,56)"/>
<path d="M0 0 C0 0.33 0 0.66 0 1 C-3.3 1.33 -6.6 1.66 -10 2 C-10 1.34 -10 0.68 -10 0 C-6.7169902 -1.6415049 -3.57454967 -0.51888624 0 0 Z " fill="#D86D75" transform="translate(255,34)"/>
<path d="M0 0 C1.32 0 2.64 0 4 0 C4.33 1.32 4.66 2.64 5 4 C3.68 4.33 2.36 4.66 1 5 C0.67 3.35 0.34 1.7 0 0 Z M-1 5 C1 6 1 6 1 6 Z " fill="#DFE1E5" transform="translate(298,168)"/>
<path d="M0 0 C0 0.66 0 1.32 0 2 C-1.875 3.0625 -1.875 3.0625 -4 4 C-4.66 3.67 -5.32 3.34 -6 3 C-6 3.66 -6 4.32 -6 5 C-6.66 4.67 -7.32 4.34 -8 4 C-5.29881977 1.17603885 -4.05589853 0 0 0 Z " fill="#E56F75" transform="translate(80,102)"/>
</svg>
